<?xml version="1.0" encoding="UTF-8"?>
<svg xmlns="http://www.w3.org/2000/svg" xmlns:xlink="http://www.w3.org/1999/xlink" viewBox="0 0 240 240" width="240px" height="240px">
<g id="surface57754662">
<path style=" stroke:none;fill-rule:nonzero;fill:rgb(34.117648%,14.509805%,14.509805%);fill-opacity:1;" d="M 56.398438 240 C 25.25 240 0 214.75 0 183.601562 L 0 56.398438 C 0 25.25 25.25 0 56.398438 0 L 183.601562 0 C 214.75 0 240 25.25 240 56.398438 L 240 183.601562 C 240 214.75 214.75 240 183.601562 240 Z M 56.398438 240 "/>
<path style=" stroke:none;fill-rule:nonzero;fill:rgb(96.862745%,87.450981%,11.764706%);fill-opacity:1;" d="M 30 210 L 30 30 L 210 30 L 210 210 Z M 30 210 "/>
<path style=" stroke:none;fill-rule:nonzero;fill:rgb(0%,0%,0.392157%);fill-opacity:1;" d="M 147.691406 164.734375 C 151.148438 170.355469 154.910156 175.738281 162.875 175.738281 C 169.566406 175.738281 173.074219 172.414062 173.074219 167.816406 C 173.074219 162.308594 169.445312 160.355469 162.085938 157.148438 L 158.050781 155.429688 C 146.40625 150.488281 138.660156 144.300781 138.660156 131.226562 C 138.660156 119.175781 147.886719 110.003906 162.300781 110.003906 C 172.566406 110.003906 179.941406 113.558594 185.261719 122.871094 L 172.691406 130.90625 C 169.925781 125.964844 166.933594 124.019531 162.300781 124.019531 C 157.570312 124.019531 154.574219 127.003906 154.574219 130.90625 C 154.574219 135.726562 157.574219 137.675781 164.5 140.660156 L 168.535156 142.378906 C 182.261719 148.226562 190 154.195312 190 167.613281 C 190 182.074219 178.578125 190 163.25 190 C 148.253906 190 139.738281 182.476562 135 173.160156 Z M 89.761719 165.144531 C 92.289062 169.675781 96.136719 173.160156 101.664062 173.160156 C 106.953125 173.160156 110 171.070312 110 162.945312 L 110 110 L 126.664062 110 L 126.664062 165.503906 C 126.664062 182.339844 116.898438 190 102.640625 190 C 89.753906 190 80.453125 181.269531 76.664062 173.160156 Z M 89.761719 165.144531 "/>
</g>
</svg>
