<?xml version="1.0" encoding="UTF-8"?>
<svg xmlns="http://www.w3.org/2000/svg" xmlns:xlink="http://www.w3.org/1999/xlink" viewBox="0 0 240 240" width="240px" height="240px">
<g id="surface57758936">
<path style=" stroke:none;fill-rule:nonzero;fill:rgb(18.82353%,13.725491%,35.686275%);fill-opacity:1;" d="M 56.398438 240 C 25.25 240 0 214.75 0 183.601562 L 0 56.398438 C 0 25.25 25.25 0 56.398438 0 L 183.601562 0 C 214.75 0 240 25.25 240 56.398438 L 240 183.601562 C 240 214.75 214.75 240 183.601562 240 Z M 56.398438 240 "/>
<path style=" stroke:none;fill-rule:nonzero;fill:rgb(0.784314%,46.666667%,74.117649%);fill-opacity:1;" d="M 205 25 L 35 25 L 50 195 L 120 215 L 190 195 Z M 205 25 "/>
<path style=" stroke:none;fill-rule:nonzero;fill:rgb(1.176471%,60.784316%,89.803922%);fill-opacity:1;" d="M 120 40 L 120 199.5 L 176 183.5 L 188.5 40 Z M 120 40 "/>
<path style=" stroke:none;fill-rule:nonzero;fill:rgb(100%,100%,100%);fill-opacity:1;" d="M 165.5 65 L 120 65 L 120 85 L 144.5 85 L 143 105 L 120 105 L 120 125 L 142 125 L 140.5 147.5 L 120 154.5 L 120 175.5 L 159.5 162.5 L 163 105 Z M 165.5 65 "/>
<path style=" stroke:none;fill-rule:nonzero;fill:rgb(93.333334%,93.333334%,93.333334%);fill-opacity:1;" d="M 120 65 L 120 85 L 75.5 85 L 74 65 Z M 97 105 L 98 125 L 120 125 L 120 105 Z M 99 135 L 79 135 L 80.5 162.5 L 120 175.5 L 120 154.5 L 99.5 147.5 Z M 99 135 "/>
</g>
</svg>
