<?xml version="1.0" encoding="UTF-8"?>
<svg xmlns="http://www.w3.org/2000/svg" xmlns:xlink="http://www.w3.org/1999/xlink" viewBox="0 0 240 240" width="240px" height="240px">
<g id="surface57806944">
<path style=" stroke:none;fill-rule:nonzero;fill:rgb(95.686275%,95.686275%,95.686275%);fill-opacity:1;" d="M 56.398438 240 C 25.25 240 0 214.75 0 183.601562 L 0 56.398438 C 0 25.25 25.25 0 56.398438 0 L 183.601562 0 C 214.75 0 240 25.25 240 56.398438 L 240 183.601562 C 240 214.75 214.75 240 183.601562 240 Z M 56.398438 240 "/>
<path style=" stroke:none;fill-rule:nonzero;fill:rgb(95.686275%,26.274511%,21.176471%);fill-opacity:1;" d="M 118.25 124.488281 C 113.261719 116.445312 109.640625 109.773438 104.625 97.214844 C 96.144531 76 156.199219 56.828125 131.851562 19.996094 C 142.40625 45.441406 93.964844 61.171875 89.464844 82.359375 C 85.351562 101.851562 118.226562 124.488281 118.25 124.488281 Z M 118.25 124.488281 "/>
<path style=" stroke:none;fill-rule:nonzero;fill:rgb(95.686275%,26.274511%,21.176471%);fill-opacity:1;" d="M 119.390625 86.351562 C 118.429688 98.929688 130.535156 105.636719 130.886719 114.824219 C 131.164062 122.304688 123.648438 128.539062 123.648438 128.539062 C 123.648438 128.539062 137.289062 125.859375 141.542969 114.449219 C 146.269531 101.78125 132.375 93.105469 133.804688 82.960938 C 135.140625 73.269531 163.960938 55.246094 163.960938 55.246094 C 163.960938 55.246094 121.554688 58.054688 119.390625 86.351562 Z M 119.390625 86.351562 "/>
<path style=" stroke:none;fill-rule:nonzero;fill:rgb(8.235294%,39.607844%,75.294119%);fill-opacity:1;" d="M 160.417969 125.273438 C 169.191406 123.304688 176.585938 128.890625 176.585938 135.324219 C 176.585938 149.828125 156.480469 163.539062 156.480469 163.539062 C 156.480469 163.539062 187.605469 159.828125 187.605469 136.015625 C 187.605469 120.265625 172.320312 116.328125 160.417969 125.273438 Z M 145.644531 136.976562 C 145.644531 136.976562 155.351562 130.058594 157.933594 127.464844 C 134.121094 132.519531 79.746094 133.199219 79.746094 128.808594 C 79.746094 124.765625 97.28125 120.621094 97.28125 120.621094 C 97.28125 120.621094 58.414062 120.058594 58.414062 131.523438 C 58.414062 143.476562 109.289062 144.328125 145.644531 136.976562 Z M 145.644531 136.976562 "/>
<path style=" stroke:none;fill-rule:nonzero;fill:rgb(8.235294%,39.607844%,75.294119%);fill-opacity:1;" d="M 139.675781 147.855469 C 117.128906 155.351562 75.605469 152.953125 87.90625 142.890625 C 81.914062 142.890625 73.035156 147.703125 73.035156 152.335938 C 73.035156 161.621094 117.945312 168.789062 151.183594 155.195312 Z M 139.675781 147.855469 "/>
<path style=" stroke:none;fill-rule:nonzero;fill:rgb(8.235294%,39.607844%,75.294119%);fill-opacity:1;" d="M 93.429688 163.695312 C 85.25 163.695312 79.953125 168.964844 79.953125 172.804688 C 79.953125 184.761719 128.753906 185.964844 148.089844 173.828125 L 135.800781 165.667969 C 121.355469 172.019531 85.070312 172.894531 93.429688 163.695312 Z M 93.429688 163.695312 "/>
<path style=" stroke:none;fill-rule:nonzero;fill:rgb(8.235294%,39.607844%,75.294119%);fill-opacity:1;" d="M 181.40625 183.160156 C 181.40625 178.480469 176.128906 176.273438 174.238281 175.21875 C 185.378906 202.085938 62.65625 200 62.65625 184.140625 C 62.65625 180.535156 71.691406 177.003906 80.039062 178.675781 L 72.941406 174.480469 C 56.300781 171.871094 45 179.183594 45 185.085938 C 45 212.601562 181.40625 211.273438 181.40625 183.160156 Z M 181.40625 183.160156 "/>
<path style=" stroke:none;fill-rule:nonzero;fill:rgb(8.235294%,39.607844%,75.294119%);fill-opacity:1;" d="M 195 193.019531 C 174.269531 213.496094 121.703125 220.953125 68.84375 208.304688 C 121.703125 230.820312 194.75 218.140625 195 193.019531 Z M 195 193.019531 "/>
</g>
</svg>
