<?xml version="1.0" encoding="UTF-8"?>
<svg xmlns="http://www.w3.org/2000/svg" xmlns:xlink="http://www.w3.org/1999/xlink" viewBox="0 0 200 200" width="200px" height="200px">
<g id="surface57879802">
<path style=" stroke:none;fill-rule:nonzero;fill:rgb(84.313726%,83.529413%,83.529413%);fill-opacity:1;" d="M 47 200 C 21.042969 200 0 178.957031 0 153 L 0 47 C 0 21.042969 21.042969 0 47 0 L 153 0 C 178.957031 0 200 21.042969 200 47 L 200 153 C 200 178.957031 178.957031 200 153 200 Z M 47 200 "/>
<path style=" stroke:none;fill-rule:nonzero;fill:rgb(22.352941%,75.686276%,84.313726%);fill-opacity:1;" d="M 114 100 C 114 107.730469 107.730469 114 100 114 C 92.269531 114 86 107.730469 86 100 C 86 92.269531 92.269531 86 100 86 C 107.730469 86 114 92.269531 114 100 Z M 114 100 "/>
<path style=" stroke:none;fill-rule:nonzero;fill:rgb(12.156863%,12.941177%,16.862746%);fill-opacity:1;" d="M 100 116 C 91.179688 116 84 108.820312 84 100 C 84 91.179688 91.179688 84 100 84 C 108.820312 84 116 91.179688 116 100 C 116 108.820312 108.820312 116 100 116 Z M 100 88 C 93.382812 88 88 93.382812 88 100 C 88 106.617188 93.382812 112 100 112 C 106.617188 112 112 106.617188 112 100 C 112 93.382812 106.617188 88 100 88 Z M 100 88 "/>
<path style=" stroke:none;fill-rule:nonzero;fill:rgb(22.352941%,75.686276%,84.313726%);fill-opacity:1;" d="M 177 100 C 177 89.246094 164.050781 79.941406 143.964844 74.402344 C 149.128906 54.210938 147.539062 38.335938 138.308594 32.945312 C 134.671875 30.820312 130.253906 30.433594 125.1875 31.789062 C 117.550781 33.832031 108.800781 39.808594 100 48.585938 C 91.199219 39.808594 82.449219 33.835938 74.8125 31.789062 C 69.746094 30.429688 65.328125 30.820312 61.691406 32.945312 C 52.460938 38.335938 50.871094 54.210938 56.035156 74.402344 C 35.949219 79.941406 23 89.246094 23 100 C 23 110.753906 35.949219 120.058594 56.035156 125.597656 C 50.871094 145.789062 52.460938 161.667969 61.691406 167.054688 C 63.914062 168.355469 66.425781 169.007812 69.203125 169.007812 C 70.96875 169.007812 72.84375 168.742188 74.8125 168.214844 C 82.449219 166.167969 91.199219 160.195312 100 151.414062 C 108.800781 160.195312 117.550781 166.167969 125.1875 168.214844 C 127.15625 168.742188 129.03125 169.007812 130.796875 169.007812 C 133.574219 169.007812 136.085938 168.355469 138.308594 167.054688 C 147.539062 161.667969 149.125 145.789062 143.964844 125.597656 C 164.050781 120.058594 177 110.753906 177 100 Z M 126.738281 37.582031 C 128.1875 37.195312 129.53125 37 130.769531 37 C 132.488281 37 134.003906 37.375 135.285156 38.125 C 141.46875 41.738281 142.730469 54.964844 138.125 72.949219 C 131.777344 71.519531 124.855469 70.445312 117.496094 69.78125 C 113.179688 63.554688 108.6875 57.886719 104.160156 52.925781 C 112.195312 44.871094 120.078125 39.367188 126.738281 37.582031 Z M 121.511719 112.597656 C 119.152344 116.730469 116.671875 120.6875 114.125 124.476562 C 109.605469 124.8125 104.890625 125 100 125 C 95.109375 125 90.394531 124.8125 85.878906 124.476562 C 83.332031 120.6875 80.851562 116.730469 78.492188 112.597656 C 76.054688 108.324219 73.867188 104.117188 71.90625 100.003906 C 73.867188 95.886719 76.054688 91.679688 78.492188 87.402344 C 80.851562 83.269531 83.332031 79.3125 85.878906 75.523438 C 90.398438 75.1875 95.109375 75 100 75 C 104.890625 75 109.601562 75.1875 114.121094 75.523438 C 116.667969 79.3125 119.148438 83.273438 121.511719 87.402344 C 123.949219 91.675781 126.136719 95.882812 128.097656 100.003906 C 126.136719 104.117188 123.949219 108.324219 121.511719 112.597656 Z M 131.289062 107.089844 C 133.371094 112.011719 135.089844 116.75 136.480469 121.253906 C 131.933594 122.269531 127.019531 123.113281 121.773438 123.738281 C 123.457031 121.089844 125.117188 118.375 126.71875 115.570312 C 128.34375 112.730469 129.855469 109.902344 131.289062 107.089844 Z M 100 142.714844 C 96.726562 139.097656 93.460938 135.089844 90.273438 130.757812 C 93.457031 130.910156 96.695312 131 100 131 C 103.304688 131 106.542969 130.910156 109.726562 130.757812 C 106.539062 135.089844 103.273438 139.09375 100 142.714844 Z M 78.222656 123.738281 C 72.980469 123.113281 68.066406 122.269531 63.515625 121.253906 C 64.90625 116.75 66.628906 112.011719 68.710938 107.089844 C 70.140625 109.902344 71.65625 112.730469 73.277344 115.570312 C 74.882812 118.378906 76.539062 121.089844 78.222656 123.738281 Z M 68.710938 92.910156 C 66.628906 87.988281 64.90625 83.25 63.519531 78.742188 C 68.066406 77.730469 72.980469 76.882812 78.226562 76.257812 C 76.542969 78.910156 74.882812 81.625 73.28125 84.429688 C 71.65625 87.269531 70.144531 90.101562 68.710938 92.910156 Z M 100 57.289062 C 103.273438 60.90625 106.539062 64.910156 109.726562 69.246094 C 106.542969 69.089844 103.304688 69 100 69 C 96.695312 69 93.457031 69.089844 90.273438 69.242188 C 93.460938 64.910156 96.726562 60.90625 100 57.289062 Z M 126.71875 84.433594 C 125.117188 81.625 123.457031 78.910156 121.773438 76.261719 C 127.019531 76.886719 131.933594 77.730469 136.484375 78.746094 C 135.09375 83.253906 133.371094 87.988281 131.289062 92.914062 C 129.855469 90.101562 128.34375 87.269531 126.71875 84.433594 Z M 64.714844 38.125 C 66 37.375 67.507812 37 69.230469 37 C 70.464844 37 71.8125 37.195312 73.261719 37.582031 C 79.921875 39.367188 87.804688 44.867188 95.839844 52.921875 C 91.3125 57.886719 86.820312 63.554688 82.503906 69.78125 C 75.144531 70.445312 68.21875 71.519531 61.875 72.945312 C 57.269531 54.964844 58.53125 41.734375 64.714844 38.125 Z M 29 100 C 29 92.808594 39.800781 85.121094 57.671875 80.199219 C 59.609375 86.515625 62.152344 93.171875 65.28125 100 C 62.152344 106.828125 59.609375 113.484375 57.671875 119.800781 C 39.800781 114.878906 29 107.191406 29 100 Z M 73.261719 162.417969 C 69.796875 163.34375 66.921875 163.160156 64.714844 161.875 C 58.53125 158.265625 57.273438 145.035156 61.875 127.054688 C 68.21875 128.480469 75.144531 129.554688 82.503906 130.21875 C 86.820312 136.445312 91.3125 142.113281 95.839844 147.078125 C 87.804688 155.132812 79.921875 160.632812 73.261719 162.417969 Z M 135.285156 161.875 C 133.078125 163.164062 130.207031 163.34375 126.738281 162.417969 C 120.078125 160.632812 112.195312 155.132812 104.160156 147.078125 C 108.6875 142.113281 113.179688 136.445312 117.496094 130.21875 C 124.855469 129.554688 131.777344 128.480469 138.121094 127.050781 C 142.730469 145.035156 141.46875 158.265625 135.285156 161.875 Z M 142.328125 119.800781 C 140.390625 113.484375 137.847656 106.828125 134.71875 100 C 137.847656 93.171875 140.390625 86.515625 142.328125 80.199219 C 160.199219 85.121094 171 92.808594 171 100 C 171 107.191406 160.199219 114.878906 142.328125 119.800781 Z M 142.328125 119.800781 "/>
<path style=" stroke:none;fill-rule:nonzero;fill:rgb(12.156863%,12.941177%,16.862746%);fill-opacity:1;" d="M 69.191406 170.003906 C 66.246094 170.003906 63.554688 169.300781 61.1875 167.917969 C 51.925781 162.507812 49.621094 147.367188 54.832031 126.296875 C 33.949219 120.359375 22 110.800781 22 100 C 22 89.199219 33.949219 79.640625 54.828125 73.703125 C 49.621094 52.632812 51.925781 37.492188 61.1875 32.082031 C 65.0625 29.8125 69.734375 29.390625 75.074219 30.820312 C 82.511719 32.8125 91.113281 38.460938 100 47.179688 C 108.886719 38.460938 117.492188 32.8125 124.925781 30.820312 C 130.265625 29.394531 134.9375 29.816406 138.8125 32.082031 C 148.074219 37.492188 150.378906 52.632812 145.171875 73.703125 C 166.050781 79.640625 178 89.199219 178 100 C 178 110.800781 166.050781 120.359375 145.171875 126.296875 C 150.378906 147.367188 148.078125 162.507812 138.8125 167.917969 C 134.960938 170.167969 130.242188 170.601562 124.929688 169.179688 C 117.488281 167.1875 108.886719 161.539062 100 152.820312 C 91.113281 161.539062 82.511719 167.1875 75.074219 169.179688 C 73.027344 169.726562 71.050781 170.003906 69.203125 170.003906 C 69.199219 170.003906 69.195312 170.003906 69.191406 170.003906 Z M 69.207031 31.996094 C 66.605469 31.996094 64.261719 32.601562 62.195312 33.808594 C 53.746094 38.742188 51.804688 53.824219 57.003906 74.15625 C 57.136719 74.683594 56.824219 75.222656 56.300781 75.367188 C 36.074219 80.945312 24 90.152344 24 100 C 24 109.847656 36.074219 119.054688 56.300781 124.632812 C 56.828125 124.777344 57.140625 125.316406 57.007812 125.84375 C 51.804688 146.175781 53.746094 161.257812 62.195312 166.191406 C 64.253906 167.390625 66.609375 168.003906 69.191406 168.003906 C 69.195312 168.003906 69.199219 168.003906 69.203125 168.003906 C 70.878906 168.003906 72.679688 167.746094 74.554688 167.246094 C 81.851562 165.292969 90.40625 159.574219 99.292969 150.707031 C 99.683594 150.316406 100.316406 150.316406 100.707031 150.707031 C 109.59375 159.570312 118.148438 165.289062 125.445312 167.246094 C 130.230469 168.523438 134.414062 168.167969 137.804688 166.191406 C 146.253906 161.257812 148.195312 146.175781 142.992188 125.84375 C 142.859375 125.316406 143.171875 124.777344 143.699219 124.632812 C 163.925781 119.054688 176 109.847656 176 100 C 176 90.152344 163.925781 80.945312 143.699219 75.367188 C 143.171875 75.222656 142.859375 74.683594 142.992188 74.15625 C 148.191406 53.824219 146.253906 38.742188 137.804688 33.808594 C 134.40625 31.824219 130.246094 31.46875 125.441406 32.753906 C 118.148438 34.707031 109.59375 40.425781 100.703125 49.292969 C 100.3125 49.683594 99.683594 49.683594 99.292969 49.292969 C 90.402344 40.425781 81.847656 34.707031 74.554688 32.753906 C 72.671875 32.25 70.886719 31.996094 69.207031 31.996094 Z M 130.773438 163.996094 C 129.445312 163.996094 128.015625 163.792969 126.480469 163.382812 C 119.816406 161.597656 111.855469 156.207031 103.453125 147.785156 C 103.074219 147.40625 103.0625 146.796875 103.421875 146.402344 C 107.949219 141.4375 112.40625 135.796875 116.675781 129.648438 C 116.84375 129.402344 117.109375 129.246094 117.40625 129.222656 C 124.628906 128.570312 131.527344 127.511719 137.902344 126.074219 C 138.425781 125.957031 138.957031 126.277344 139.09375 126.804688 C 143.765625 145.050781 142.496094 158.820312 135.789062 162.738281 C 134.351562 163.578125 132.671875 163.996094 130.773438 163.996094 Z M 105.542969 147.042969 C 113.445312 154.828125 120.847656 159.804688 126.996094 161.453125 C 130.195312 162.304688 132.8125 162.15625 134.78125 161.011719 C 140.488281 157.675781 141.492188 144.867188 137.390625 128.238281 C 131.335938 129.554688 124.839844 130.542969 118.050781 131.171875 C 114.019531 136.957031 109.816406 142.289062 105.542969 147.042969 Z M 69.226562 163.996094 C 67.328125 163.996094 65.648438 163.578125 64.210938 162.738281 C 57.503906 158.820312 56.234375 145.050781 60.90625 126.804688 C 61.042969 126.28125 61.574219 125.964844 62.097656 126.074219 C 68.472656 127.511719 75.367188 128.570312 82.59375 129.222656 C 82.886719 129.246094 83.15625 129.402344 83.324219 129.648438 C 87.59375 135.796875 92.050781 141.4375 96.578125 146.402344 C 96.941406 146.796875 96.925781 147.40625 96.546875 147.785156 C 88.144531 156.203125 80.183594 161.597656 73.523438 163.382812 C 71.984375 163.792969 70.550781 163.996094 69.226562 163.996094 Z M 62.609375 128.238281 C 58.507812 144.863281 59.511719 157.675781 65.21875 161.011719 C 67.183594 162.15625 69.804688 162.304688 73.003906 161.453125 C 79.152344 159.804688 86.554688 154.828125 94.457031 147.042969 C 90.1875 142.289062 85.980469 136.957031 81.949219 131.171875 C 75.164062 130.542969 68.664062 129.554688 62.609375 128.238281 Z M 100 143.710938 C 99.71875 143.710938 99.449219 143.59375 99.257812 143.382812 C 95.933594 139.703125 92.636719 135.652344 89.464844 131.347656 C 89.238281 131.035156 89.207031 130.621094 89.390625 130.28125 C 89.570312 129.941406 89.910156 129.730469 90.320312 129.753906 C 96.933594 130.074219 103.066406 130.074219 109.679688 129.753906 C 110.078125 129.730469 110.429688 129.941406 110.609375 130.28125 C 110.792969 130.621094 110.765625 131.035156 110.535156 131.347656 C 107.363281 135.652344 104.066406 139.703125 100.742188 143.382812 C 100.550781 143.59375 100.28125 143.710938 100 143.710938 Z M 92.335938 131.847656 C 94.835938 135.15625 97.40625 138.300781 100 141.214844 C 102.59375 138.300781 105.164062 135.160156 107.664062 131.847656 C 102.441406 132.046875 97.558594 132.046875 92.335938 131.847656 Z M 100 126 C 95.261719 126 90.484375 125.824219 85.800781 125.472656 C 85.496094 125.453125 85.21875 125.289062 85.046875 125.035156 C 82.371094 121.054688 79.875 117.039062 77.621094 113.09375 C 75.261719 108.957031 73.035156 104.699219 71.003906 100.429688 C 70.871094 100.15625 70.871094 99.84375 71.003906 99.570312 C 73.035156 95.300781 75.261719 91.042969 77.621094 86.90625 C 79.871094 82.964844 82.371094 78.949219 85.046875 74.964844 C 85.21875 74.710938 85.496094 74.546875 85.804688 74.523438 C 95.171875 73.824219 104.828125 73.824219 114.195312 74.523438 C 114.503906 74.546875 114.78125 74.707031 114.953125 74.964844 C 117.628906 78.949219 120.128906 82.964844 122.378906 86.90625 C 124.738281 91.042969 126.964844 95.300781 128.996094 99.570312 C 129.128906 99.84375 129.128906 100.15625 128.996094 100.429688 C 126.964844 104.699219 124.738281 108.957031 122.378906 113.09375 C 120.125 117.039062 117.628906 121.054688 114.953125 125.035156 C 114.785156 125.289062 114.503906 125.449219 114.199219 125.472656 C 109.515625 125.824219 104.738281 126 100 126 Z M 86.4375 123.515625 C 95.394531 124.15625 104.605469 124.15625 113.5625 123.515625 C 116.109375 119.707031 118.488281 115.871094 120.640625 112.101562 C 122.894531 108.144531 125.03125 104.078125 126.984375 100 C 125.03125 95.921875 122.894531 91.851562 120.640625 87.898438 C 118.488281 84.132812 116.109375 80.296875 113.558594 76.484375 C 104.601562 75.839844 95.390625 75.839844 86.433594 76.484375 C 83.886719 80.296875 81.503906 84.132812 79.355469 87.898438 C 77.097656 91.855469 74.964844 95.921875 73.007812 100 C 74.964844 104.078125 77.097656 108.148438 79.355469 112.101562 C 81.511719 115.871094 83.890625 119.707031 86.4375 123.515625 Z M 121.777344 124.742188 C 121.4375 124.742188 121.113281 124.566406 120.929688 124.277344 C 120.722656 123.949219 120.726562 123.53125 120.933594 123.207031 C 122.789062 120.285156 124.398438 117.625 125.851562 115.074219 C 127.378906 112.398438 128.90625 109.558594 130.398438 106.636719 C 130.574219 106.292969 130.945312 106.085938 131.324219 106.09375 C 131.710938 106.109375 132.058594 106.34375 132.210938 106.703125 C 134.238281 111.503906 135.996094 116.300781 137.4375 120.960938 C 137.523438 121.226562 137.488281 121.519531 137.347656 121.757812 C 137.207031 122 136.972656 122.171875 136.699219 122.230469 C 132 123.28125 127.019531 124.125 121.894531 124.734375 C 121.855469 124.738281 121.8125 124.742188 121.777344 124.742188 Z M 131.191406 109.460938 C 130.003906 111.738281 128.796875 113.953125 127.589844 116.066406 C 126.425781 118.109375 125.15625 120.222656 123.75 122.484375 C 127.691406 121.960938 131.53125 121.296875 135.203125 120.511719 C 134.050781 116.882812 132.707031 113.179688 131.191406 109.460938 Z M 78.222656 124.742188 C 78.183594 124.742188 78.144531 124.738281 78.105469 124.734375 C 72.980469 124.121094 68 123.28125 63.300781 122.230469 C 63.027344 122.171875 62.792969 121.996094 62.652344 121.757812 C 62.511719 121.515625 62.480469 121.226562 62.5625 120.960938 C 64.003906 116.296875 65.761719 111.5 67.789062 106.703125 C 67.941406 106.34375 68.289062 106.105469 68.675781 106.09375 C 69.039062 106.054688 69.425781 106.289062 69.601562 106.636719 C 71.09375 109.558594 72.621094 112.398438 74.148438 115.074219 C 75.605469 117.621094 77.214844 120.28125 79.066406 123.203125 C 79.277344 123.53125 79.277344 123.945312 79.070312 124.273438 C 78.886719 124.566406 78.566406 124.742188 78.222656 124.742188 Z M 64.796875 120.511719 C 68.472656 121.296875 72.3125 121.960938 76.253906 122.484375 C 74.84375 120.222656 73.578125 118.109375 72.410156 116.066406 C 71.203125 113.953125 69.996094 111.734375 68.808594 109.460938 C 67.292969 113.179688 65.949219 116.882812 64.796875 120.511719 Z M 142.328125 120.800781 C 141.898438 120.800781 141.507812 120.523438 141.375 120.09375 C 139.425781 113.734375 136.878906 107.117188 133.808594 100.417969 C 133.6875 100.152344 133.6875 99.847656 133.808594 99.585938 C 136.878906 92.886719 139.425781 86.265625 141.375 79.902344 C 141.535156 79.386719 142.085938 79.097656 142.597656 79.234375 C 160.734375 84.230469 172 92.1875 172 100 C 172 107.8125 160.730469 115.769531 142.59375 120.765625 C 142.507812 120.789062 142.414062 120.800781 142.328125 120.800781 Z M 135.816406 100 C 138.691406 106.308594 141.105469 112.554688 142.996094 118.574219 C 159.433594 113.890625 170 106.644531 170 100 C 170 93.355469 159.433594 86.109375 142.996094 81.425781 C 141.101562 87.449219 138.6875 93.691406 135.816406 100 Z M 57.671875 120.800781 C 57.582031 120.800781 57.492188 120.789062 57.402344 120.765625 C 39.269531 115.769531 28 107.8125 28 100 C 28 92.1875 39.265625 84.230469 57.402344 79.234375 C 57.921875 79.097656 58.464844 79.386719 58.625 79.902344 C 60.578125 86.265625 63.125 92.886719 66.191406 99.585938 C 66.3125 99.847656 66.3125 100.152344 66.191406 100.417969 C 63.121094 107.117188 60.578125 113.738281 58.628906 120.09375 C 58.496094 120.523438 58.101562 120.800781 57.671875 120.800781 Z M 57.003906 81.425781 C 40.566406 86.109375 30 93.355469 30 100 C 30 106.644531 40.566406 113.890625 57.003906 118.574219 C 58.898438 112.554688 61.308594 106.3125 64.183594 100 C 61.3125 93.691406 58.898438 87.449219 57.003906 81.425781 Z M 131.289062 93.914062 C 130.914062 93.914062 130.570312 93.703125 130.398438 93.367188 C 128.882812 90.390625 127.394531 87.628906 125.855469 84.929688 C 124.402344 82.382812 122.792969 79.722656 120.933594 76.796875 C 120.722656 76.46875 120.722656 76.054688 120.929688 75.726562 C 121.136719 75.398438 121.503906 75.21875 121.894531 75.265625 C 127.023438 75.878906 132.003906 76.722656 136.703125 77.769531 C 136.976562 77.828125 137.210938 78.003906 137.351562 78.242188 C 137.492188 78.484375 137.523438 78.773438 137.441406 79.039062 C 136 83.710938 134.238281 88.511719 132.214844 93.300781 C 132.0625 93.660156 131.714844 93.898438 131.328125 93.910156 C 131.3125 93.914062 131.300781 93.914062 131.289062 93.914062 Z M 127.589844 83.9375 C 128.808594 86.074219 129.996094 88.253906 131.191406 90.539062 C 132.703125 86.828125 134.046875 83.121094 135.199219 79.488281 C 131.527344 78.703125 127.6875 78.039062 123.742188 77.515625 C 125.160156 79.78125 126.425781 81.894531 127.589844 83.9375 Z M 68.710938 93.914062 C 68.699219 93.914062 68.6875 93.914062 68.675781 93.914062 C 68.285156 93.898438 67.941406 93.664062 67.789062 93.304688 C 65.761719 88.511719 64.003906 83.714844 62.558594 79.042969 C 62.476562 78.777344 62.511719 78.484375 62.648438 78.246094 C 62.789062 78.003906 63.027344 77.832031 63.296875 77.773438 C 67.996094 76.722656 72.980469 75.878906 78.105469 75.269531 C 78.496094 75.226562 78.867188 75.402344 79.070312 75.726562 C 79.277344 76.054688 79.277344 76.472656 79.070312 76.796875 C 77.210938 79.726562 75.601562 82.386719 74.148438 84.929688 C 72.605469 87.632812 71.117188 90.390625 69.605469 93.371094 C 69.429688 93.703125 69.085938 93.914062 68.710938 93.914062 Z M 64.796875 79.488281 C 65.953125 83.121094 67.296875 86.828125 68.808594 90.539062 C 70.003906 88.253906 71.1875 86.074219 72.410156 83.9375 C 73.574219 81.894531 74.839844 79.78125 76.253906 77.515625 C 72.3125 78.039062 68.472656 78.703125 64.796875 79.488281 Z M 138.125 73.949219 C 138.050781 73.949219 137.980469 73.941406 137.90625 73.925781 C 131.53125 72.488281 124.632812 71.429688 117.40625 70.777344 C 117.113281 70.753906 116.84375 70.597656 116.675781 70.351562 C 112.40625 64.199219 107.949219 58.5625 103.421875 53.597656 C 103.058594 53.203125 103.074219 52.597656 103.453125 52.21875 C 111.855469 43.796875 119.816406 38.402344 126.480469 36.617188 C 130.21875 35.617188 133.355469 35.84375 135.789062 37.261719 C 142.496094 41.183594 143.765625 54.953125 139.09375 73.199219 C 138.976562 73.644531 138.574219 73.949219 138.125 73.949219 Z M 118.050781 68.828125 C 124.835938 69.457031 131.335938 70.445312 137.390625 71.761719 C 141.492188 55.136719 140.488281 42.324219 134.777344 38.988281 C 132.820312 37.847656 130.195312 37.695312 126.996094 38.546875 C 120.847656 40.195312 113.441406 45.171875 105.539062 52.960938 C 109.8125 57.710938 114.019531 63.042969 118.050781 68.828125 Z M 61.875 73.949219 C 61.425781 73.949219 61.023438 73.644531 60.90625 73.195312 C 56.234375 54.949219 57.5 41.183594 64.210938 37.261719 C 66.644531 35.84375 69.785156 35.617188 73.519531 36.617188 C 80.183594 38.402344 88.144531 43.796875 96.546875 52.21875 C 96.921875 52.597656 96.9375 53.203125 96.578125 53.597656 C 92.050781 58.5625 87.589844 64.203125 83.324219 70.351562 C 83.15625 70.597656 82.886719 70.753906 82.59375 70.777344 C 75.367188 71.429688 68.46875 72.488281 62.09375 73.925781 C 62.019531 73.941406 61.949219 73.949219 61.875 73.949219 Z M 65.21875 38.988281 C 59.511719 42.324219 58.507812 55.136719 62.605469 71.761719 C 68.660156 70.445312 75.160156 69.457031 81.949219 68.828125 C 85.980469 63.042969 90.183594 57.710938 94.457031 52.957031 C 86.554688 45.171875 79.148438 40.195312 73 38.546875 C 69.8125 37.695312 67.1875 37.84375 65.21875 38.988281 Z M 109.726562 70.242188 C 109.710938 70.242188 109.695312 70.242188 109.679688 70.242188 C 103.066406 69.921875 96.933594 69.921875 90.320312 70.242188 C 89.910156 70.253906 89.574219 70.054688 89.390625 69.71875 C 89.210938 69.378906 89.238281 68.964844 89.46875 68.652344 C 92.640625 64.34375 95.9375 60.292969 99.261719 56.617188 C 99.640625 56.199219 100.363281 56.199219 100.742188 56.617188 C 104.066406 60.289062 107.359375 64.339844 110.535156 68.652344 C 110.765625 68.960938 110.792969 69.378906 110.613281 69.71875 C 110.433594 70.042969 110.09375 70.242188 109.726562 70.242188 Z M 100 68 C 102.484375 68 105.054688 68.050781 107.664062 68.152344 C 105.160156 64.839844 102.589844 61.699219 100 58.785156 C 97.410156 61.699219 94.839844 64.839844 92.335938 68.152344 C 94.945312 68.050781 97.515625 68 100 68 Z M 100 68 "/>
</g>
</svg>
