<?xml version="1.0" encoding="UTF-8"?>
<svg xmlns="http://www.w3.org/2000/svg" xmlns:xlink="http://www.w3.org/1999/xlink" viewBox="0 0 250 250" width="250px" height="250px">
<g id="surface57798748">
<path style=" stroke:none;fill-rule:nonzero;fill:rgb(73.333335%,67.843139%,67.843139%);fill-opacity:1;" d="M 77 245 C 37.234375 245 5 212.765625 5 173 L 5 77 C 5 37.234375 37.234375 5 77 5 L 173 5 C 212.765625 5 245 37.234375 245 77 L 245 173 C 245 212.765625 212.765625 245 173 245 Z M 77 245 "/>
<path style=" stroke:none;fill-rule:nonzero;fill:rgb(26.274511%,65.882355%,27.843139%);fill-opacity:1;" d="M 34.015625 81.753906 L 34.015625 102.058594 C 32.058594 101.554688 29.707031 101.382812 27.574219 101.382812 C 13.851562 101.382812 5 109.988281 5 123.246094 C 5 137.011719 13.34375 144.171875 29.382812 144.191406 C 34.742188 144.191406 39.703125 143.699219 46.429688 142.429688 L 46.429688 81.753906 Z M 54.179688 81.820312 L 54.179688 95.160156 L 67.316406 95.160156 L 67.316406 81.820312 Z M 54.179688 101 L 54.179688 127.953125 C 54.179688 139.273438 53.59375 143.578125 51.714844 147.292969 C 49.925781 150.925781 47.117188 153.300781 41.320312 155.992188 L 53.507812 161.742188 C 59.304688 158.855469 62.109375 156.25 64.242188 152.113281 C 66.519531 147.8125 67.296875 142.820312 67.296875 132.445312 L 67.296875 101 Z M 223.71875 101 C 210.234375 101 201.824219 109.457031 201.800781 123.023438 C 201.800781 136.085938 209.949219 144.199219 223.183594 144.199219 C 236.585938 144.199219 245 135.753906 245 122.273438 C 245 109.121094 236.933594 101 223.71875 101 Z M 91.804688 101.382812 C 85.996094 101.382812 80.679688 102.574219 75.117188 105.257812 L 75.132812 115.277344 C 80.050781 112.671875 85.28125 111.320312 89.9375 111.320312 C 93.113281 111.320312 94.269531 112.175781 94.269531 114.527344 L 94.269531 117.378906 C 78.8125 118.710938 72.519531 122.921875 72.519531 132.011719 C 72.519531 140.417969 77.257812 144.199219 87.820312 144.199219 C 93.042969 144.199219 100.160156 143.601562 105.800781 142.765625 L 105.800781 116.449219 C 105.800781 111.0625 105.460938 108.539062 104.402344 106.605469 C 102.519531 103.148438 98.273438 101.382812 91.804688 101.382812 Z M 134.207031 101.382812 C 127.734375 101.382812 121.347656 102.300781 113.589844 104.328125 L 113.589844 143.675781 L 126.707031 143.675781 L 126.707031 112.773438 C 129.347656 112.007812 130.957031 111.847656 132.753906 111.847656 C 137.433594 111.847656 139.625 113.703125 139.625 118.691406 L 139.625 143.675781 L 152.28125 143.675781 L 152.28125 118.175781 C 152.28125 111.679688 151.414062 108.636719 148.691406 105.855469 C 145.800781 102.910156 140.929688 101.382812 134.207031 101.382812 Z M 186.367188 101.460938 C 167.203125 101.460938 156.367188 109.804688 156.367188 124.585938 C 156.367188 136.492188 163.683594 144.011719 175.195312 144.011719 C 178.59375 144.011719 181.160156 143.5 183.714844 142.242188 L 183.714844 142.484375 C 183.714844 150.753906 180.046875 154.222656 171.445312 154.222656 C 166.570312 154.222656 161.976562 153.132812 157.382812 150.773438 L 157.371094 150.773438 L 157.371094 162.78125 C 161.96875 164.558594 166.398438 165.3125 171.519531 165.3125 C 181.578125 165.3125 188.664062 162.179688 192.753906 155.851562 C 195.554688 151.539062 196.503906 146.304688 196.503906 135.152344 L 196.503906 131.609375 C 196.417969 129.832031 196.421875 128.058594 196.335938 126.285156 L 196.25 119.1875 L 196.082031 113.695312 L 196.082031 112.335938 C 198.714844 112.582031 195.511719 112.019531 199.007812 112.691406 L 203.507812 103.316406 C 197.203125 102.042969 192 101.460938 186.367188 101.460938 Z M 223.53125 111.359375 C 228.601562 111.359375 231.507812 115.539062 231.507812 122.582031 C 231.507812 129.703125 228.519531 133.8125 223.445312 133.8125 C 218.304688 133.8125 215.28125 129.703125 215.28125 122.582031 C 215.28125 115.457031 218.285156 111.359375 223.53125 111.359375 Z M 28.859375 111.847656 C 30.480469 111.847656 32.472656 112.019531 34.007812 112.523438 L 34.007812 133.390625 C 32.128906 133.640625 30.230469 133.726562 28.773438 133.726562 C 22.050781 133.726562 18.378906 129.90625 18.378906 122.992188 C 18.378906 115.894531 22.214844 111.847656 28.859375 111.847656 Z M 182.09375 111.929688 L 183.460938 111.929688 L 183.460938 112.933594 L 183.546875 117.238281 L 183.632812 123.238281 C 183.632812 125.007812 183.714844 126.703125 183.714844 128.226562 L 183.714844 132.714844 C 182.027344 133.21875 180.574219 133.550781 178.785156 133.550781 C 172.984375 133.550781 169.738281 129.824219 169.738281 123.332031 C 169.738281 118.777344 171.355469 115.5625 174.5 113.789062 C 176.542969 112.515625 179.539062 111.847656 182.09375 111.929688 Z M 94.839844 125.851562 L 94.839844 134.523438 C 92.394531 134.941406 90.664062 135.117188 88.785156 135.117188 C 85.34375 135.117188 83.789062 133.933594 83.789062 131.414062 C 83.789062 128.046875 86.503906 126.6875 94.839844 125.851562 Z M 94.839844 125.851562 "/>
</g>
</svg>
