<?xml version="1.0" encoding="UTF-8"?>
<svg xmlns="http://www.w3.org/2000/svg" xmlns:xlink="http://www.w3.org/1999/xlink" viewBox="0 0 240 240" width="240px" height="240px">
<g id="surface57745602">
<path style=" stroke:none;fill-rule:nonzero;fill:rgb(33.333334%,16.470589%,16.470589%);fill-opacity:1;" d="M 56.398438 240 C 25.25 240 0 214.75 0 183.601562 L 0 56.398438 C 0 25.25 25.25 0 56.398438 0 L 183.601562 0 C 214.75 0 240 25.25 240 56.398438 L 240 183.601562 C 240 214.75 214.75 240 183.601562 240 Z M 56.398438 240 "/>
<path style=" stroke:none;fill-rule:nonzero;fill:rgb(90.196079%,31.764707%,0%);fill-opacity:1;" d="M 205 25 L 35 25 L 50 195 L 120 215 L 190 195 Z M 205 25 "/>
<path style=" stroke:none;fill-rule:nonzero;fill:rgb(100%,42.745098%,0%);fill-opacity:1;" d="M 120 40 L 120 199.5 L 176 183.5 L 188.5 40 Z M 120 40 "/>
<path style=" stroke:none;fill-rule:nonzero;fill:rgb(100%,100%,100%);fill-opacity:1;" d="M 120 125 L 120 105 L 163 105 L 159.5 162.5 L 120 175.5 L 120 154.5 L 140.5 147.5 L 142 125 Z M 164.5 85 L 166 65 L 120 65 L 120 85 Z M 164.5 85 "/>
<path style=" stroke:none;fill-rule:nonzero;fill:rgb(93.333334%,93.333334%,93.333334%);fill-opacity:1;" d="M 120 154.5 L 120 175.5 L 80.5 162.5 L 78.5 135 L 98.5 135 L 99.5 147.5 Z M 95.5 85 L 120 85 L 120 65 L 74.5 65 L 78 125 L 120 125 L 120 105 L 97 105 Z M 95.5 85 "/>
</g>
</svg>
