<?xml version="1.0" encoding="UTF-8"?>
<svg xmlns="http://www.w3.org/2000/svg" xmlns:xlink="http://www.w3.org/1999/xlink" viewBox="0 0 240 240" width="240px" height="240px">
<g id="surface57762222">
<path style=" stroke:none;fill-rule:nonzero;fill:rgb(13.333334%,11.764706%,25.882354%);fill-opacity:1;" d="M 56.398438 240 C 25.25 240 0 214.75 0 183.601562 L 0 56.398438 C 0 25.25 25.25 0 56.398438 0 L 183.601562 0 C 214.75 0 240 25.25 240 56.398438 L 240 183.601562 C 240 214.75 214.75 240 183.601562 240 Z M 56.398438 240 "/>
<path style=" stroke:none;fill-rule:nonzero;fill:rgb(0.784314%,46.666667%,74.117649%);fill-opacity:1;" d="M 120.234375 25 C 112.460938 25.023438 107.070312 25.710938 100.554688 26.835938 C 81.316406 30.183594 77.808594 37.21875 77.808594 50.183594 L 77.808594 70 L 122.808594 70 L 122.808594 80 L 54.351562 80 C 41.171875 80 29.636719 86.210938 25.980469 101.09375 C 21.851562 118.179688 21.664062 128.878906 25.980469 146.71875 C 29.253906 160.023438 36.46875 170 49.65625 170 L 67.816406 170 L 67.816406 144.480469 C 67.816406 129.648438 81.246094 115 96.636719 115 L 132.816406 115 C 145.429688 115 157.816406 105.691406 157.816406 93.113281 L 157.816406 50.183594 C 157.816406 37.988281 149.019531 28.871094 136.726562 26.824219 C 137.03125 26.796875 127.945312 24.96875 120.234375 25 Z M 95.316406 45 C 99.421875 45 102.816406 48.386719 102.816406 52.511719 C 102.816406 56.675781 99.421875 60 95.316406 60 C 91.128906 60 87.816406 56.679688 87.816406 52.511719 C 87.816406 48.398438 91.128906 45 95.316406 45 Z M 95.316406 45 "/>
<path style=" stroke:none;fill-rule:nonzero;fill:rgb(100%,75.686276%,2.745098%);fill-opacity:1;" d="M 115.390625 215 C 123.164062 214.976562 128.554688 214.289062 135.070312 213.164062 C 154.308594 209.816406 157.816406 202.78125 157.816406 189.816406 L 157.816406 170 L 112.816406 170 L 112.816406 160 L 181.28125 160 C 194.460938 160 205.996094 153.789062 209.648438 138.90625 C 213.78125 121.820312 213.964844 111.121094 209.648438 93.28125 C 206.371094 79.976562 199.15625 70 185.96875 70 L 167.808594 70 L 167.808594 95.519531 C 167.808594 110.351562 154.378906 125 138.988281 125 L 102.808594 125 C 90.195312 125 77.808594 134.308594 77.808594 146.886719 L 77.808594 189.816406 C 77.808594 202.011719 86.605469 211.128906 98.898438 213.175781 C 98.59375 213.203125 107.679688 215.03125 115.390625 215 Z M 140.316406 195 C 136.210938 195 132.816406 191.613281 132.816406 187.488281 C 132.816406 183.324219 136.210938 180 140.316406 180 C 144.5 180 147.816406 183.320312 147.816406 187.488281 C 147.816406 191.601562 144.496094 195 140.316406 195 Z M 140.316406 195 "/>
</g>
</svg>
